G75*
G70*
%OFA0B0*%
%FSLAX24Y24*%
%IPPOS*%
%LPD*%
%AMOC8*
5,1,8,0,0,1.08239X$1,22.5*
%
%ADD10C,0.0020*%
%ADD11C,0.0060*%
%ADD12C,0.0010*%
%ADD13C,0.0080*%
%ADD14C,0.0320*%
%ADD15R,0.0160X0.0280*%
%ADD16C,0.0050*%
%ADD17C,0.0220*%
%ADD18C,0.0030*%
%ADD19R,0.0125X0.0125*%
%ADD20C,0.0040*%
%ADD21R,0.0512X0.0157*%
%ADD22R,0.0276X0.0315*%
D10*
X013001Y004414D02*
X013148Y004414D01*
X013001Y004561D01*
X013001Y004598D01*
X013038Y004635D01*
X013111Y004635D01*
X013148Y004598D01*
X013222Y004598D02*
X013259Y004635D01*
X013332Y004635D01*
X013369Y004598D01*
X013369Y004451D01*
X013332Y004414D01*
X013259Y004414D01*
X013222Y004451D01*
X013222Y004525D01*
X013296Y004525D01*
X013443Y004488D02*
X013443Y004451D01*
X013480Y004414D01*
X013553Y004414D01*
X013590Y004451D01*
X013553Y004525D02*
X013480Y004525D01*
X013443Y004488D01*
X013443Y004598D02*
X013480Y004635D01*
X013553Y004635D01*
X013590Y004598D01*
X013590Y004561D01*
X013553Y004525D01*
X014315Y004578D02*
X014462Y004578D01*
X014535Y004651D01*
X014462Y004725D01*
X014315Y004725D01*
X014425Y004725D02*
X014425Y004578D01*
X014352Y003943D02*
X014498Y003943D01*
X014535Y003907D01*
X014535Y003797D01*
X014315Y003797D01*
X014315Y003907D01*
X014352Y003943D01*
X014315Y003722D02*
X014535Y003722D01*
X014535Y003576D02*
X014315Y003576D01*
X014352Y003501D02*
X014425Y003501D01*
X014425Y003428D01*
X014352Y003501D02*
X014315Y003465D01*
X014315Y003391D01*
X014352Y003355D01*
X014498Y003355D01*
X014535Y003391D01*
X014535Y003465D01*
X014498Y003501D01*
X014535Y003576D02*
X014315Y003722D01*
X014352Y002975D02*
X014498Y002975D01*
X014535Y002938D01*
X014535Y002828D01*
X014315Y002828D01*
X014315Y002938D01*
X014352Y002975D01*
X014315Y002754D02*
X014315Y002607D01*
X014535Y002607D01*
X014535Y002533D02*
X014315Y002533D01*
X014425Y002533D02*
X014425Y002386D01*
X014388Y002312D02*
X014352Y002312D01*
X014315Y002275D01*
X014315Y002202D01*
X014352Y002165D01*
X014425Y002202D02*
X014425Y002275D01*
X014388Y002312D01*
X014315Y002386D02*
X014535Y002386D01*
X014498Y002312D02*
X014535Y002275D01*
X014535Y002202D01*
X014498Y002165D01*
X014462Y002165D01*
X014425Y002202D01*
X014394Y005578D02*
X014394Y005688D01*
X014357Y005725D01*
X014320Y005725D01*
X014284Y005688D01*
X014284Y005578D01*
X014504Y005578D01*
X014504Y005688D01*
X014467Y005725D01*
X014431Y005725D01*
X014394Y005688D01*
X014425Y006261D02*
X014425Y006408D01*
X014425Y006482D02*
X014462Y006555D01*
X014462Y006592D01*
X014425Y006629D01*
X014352Y006629D01*
X014315Y006592D01*
X014315Y006519D01*
X014352Y006482D01*
X014425Y006482D02*
X014535Y006482D01*
X014535Y006629D01*
X014535Y006703D02*
X014388Y006703D01*
X014315Y006776D01*
X014388Y006850D01*
X014535Y006850D01*
X014498Y006334D02*
X014352Y006334D01*
X013502Y007757D02*
X013539Y007794D01*
X013502Y007757D02*
X013429Y007757D01*
X013392Y007794D01*
X013392Y007830D01*
X013429Y007867D01*
X013502Y007867D01*
X013539Y007904D01*
X013539Y007940D01*
X013502Y007977D01*
X013429Y007977D01*
X013392Y007940D01*
X013318Y007940D02*
X013318Y007794D01*
X013281Y007757D01*
X013208Y007757D01*
X013171Y007794D01*
X013171Y007867D01*
X013244Y007867D01*
X013171Y007940D02*
X013208Y007977D01*
X013281Y007977D01*
X013318Y007940D01*
X013097Y007904D02*
X013023Y007977D01*
X013023Y007757D01*
X012950Y007757D02*
X013097Y007757D01*
X011098Y007800D02*
X011098Y007617D01*
X011061Y007580D01*
X010987Y007580D01*
X010951Y007617D01*
X010951Y007800D01*
X010877Y007764D02*
X010840Y007800D01*
X010766Y007800D01*
X010730Y007764D01*
X010730Y007727D01*
X010766Y007690D01*
X010730Y007653D01*
X010730Y007617D01*
X010766Y007580D01*
X010840Y007580D01*
X010877Y007617D01*
X010803Y007690D02*
X010766Y007690D01*
D11*
X007009Y006992D02*
X004706Y006992D01*
X004706Y002898D01*
X007009Y002898D01*
X007009Y006992D01*
X006444Y006608D02*
X006446Y006634D01*
X006452Y006660D01*
X006461Y006685D01*
X006474Y006708D01*
X006490Y006729D01*
X006509Y006747D01*
X006531Y006763D01*
X006554Y006775D01*
X006579Y006783D01*
X006605Y006788D01*
X006632Y006789D01*
X006658Y006786D01*
X006683Y006779D01*
X006708Y006769D01*
X006730Y006755D01*
X006751Y006738D01*
X006768Y006719D01*
X006783Y006697D01*
X006794Y006673D01*
X006802Y006647D01*
X006806Y006621D01*
X006806Y006595D01*
X006802Y006569D01*
X006794Y006543D01*
X006783Y006519D01*
X006768Y006497D01*
X006751Y006478D01*
X006730Y006461D01*
X006708Y006447D01*
X006683Y006437D01*
X006658Y006430D01*
X006632Y006427D01*
X006605Y006428D01*
X006579Y006433D01*
X006554Y006441D01*
X006531Y006453D01*
X006509Y006469D01*
X006490Y006487D01*
X006474Y006508D01*
X006461Y006531D01*
X006452Y006556D01*
X006446Y006582D01*
X006444Y006608D01*
D12*
X006433Y007244D02*
X006458Y007269D01*
X006433Y007244D02*
X006383Y007244D01*
X006358Y007269D01*
X006358Y007294D01*
X006383Y007319D01*
X006408Y007319D01*
X006383Y007319D02*
X006358Y007344D01*
X006358Y007369D01*
X006383Y007394D01*
X006433Y007394D01*
X006458Y007369D01*
X006505Y007369D02*
X006505Y007319D01*
X006530Y007294D01*
X006605Y007294D01*
X006555Y007294D02*
X006505Y007244D01*
X006605Y007244D02*
X006605Y007394D01*
X006530Y007394D01*
X006505Y007369D01*
X007697Y007181D02*
X007747Y007156D01*
X007797Y007106D01*
X007722Y007106D01*
X007697Y007081D01*
X007697Y007056D01*
X007722Y007031D01*
X007772Y007031D01*
X007797Y007056D01*
X007797Y007106D01*
X007845Y007056D02*
X007870Y007031D01*
X007920Y007031D01*
X007945Y007056D01*
X007945Y007156D01*
X007920Y007181D01*
X007870Y007181D01*
X007845Y007156D01*
X004589Y007010D02*
X004589Y006884D01*
X004564Y006859D01*
X004514Y006859D01*
X004489Y006884D01*
X004489Y007010D01*
X004441Y006984D02*
X004416Y007010D01*
X004366Y007010D01*
X004341Y006984D01*
X004341Y006959D01*
X004441Y006859D01*
X004341Y006859D01*
X015493Y007830D02*
X015593Y007830D01*
X015493Y007930D01*
X015493Y007955D01*
X015518Y007980D01*
X015568Y007980D01*
X015593Y007955D01*
X015640Y007980D02*
X015740Y007980D01*
X015740Y007830D01*
X015740Y007905D02*
X015690Y007905D01*
X016018Y007234D02*
X016018Y007209D01*
X016119Y007109D01*
X016119Y007084D01*
X016166Y007109D02*
X016191Y007084D01*
X016241Y007084D01*
X016266Y007109D01*
X016266Y007209D01*
X016241Y007234D01*
X016191Y007234D01*
X016166Y007209D01*
X016119Y007234D02*
X016018Y007234D01*
X017837Y006771D02*
X017837Y006746D01*
X017937Y006646D01*
X017937Y006621D01*
X017985Y006621D02*
X018035Y006671D01*
X018010Y006671D02*
X018085Y006671D01*
X018085Y006621D02*
X018085Y006771D01*
X018010Y006771D01*
X017985Y006746D01*
X017985Y006696D01*
X018010Y006671D01*
X017937Y006771D02*
X017837Y006771D01*
X015900Y002080D02*
X015800Y002080D01*
X015753Y002055D02*
X015728Y002080D01*
X015678Y002080D01*
X015653Y002055D01*
X015653Y002030D01*
X015678Y002005D01*
X015653Y001980D01*
X015653Y001955D01*
X015678Y001930D01*
X015728Y001930D01*
X015753Y001955D01*
X015703Y002005D02*
X015678Y002005D01*
X015850Y002005D02*
X015900Y002005D01*
X015900Y001930D02*
X015900Y002080D01*
D13*
X011216Y002484D02*
X011216Y007406D01*
X008499Y007406D01*
X008499Y002484D01*
X011216Y002484D01*
X003341Y002394D02*
X003341Y001933D01*
X002420Y001933D01*
X002420Y002394D01*
X002574Y002547D01*
X003187Y002547D01*
X003341Y002394D01*
X002727Y003007D02*
X002574Y002854D01*
X002420Y003007D01*
X002420Y003468D01*
X002881Y003468D01*
X003034Y003314D01*
X003034Y003007D01*
X002727Y003007D02*
X002727Y003468D01*
X002574Y003775D02*
X002420Y003928D01*
X002420Y004389D01*
X002113Y004389D02*
X003034Y004389D01*
X003034Y003928D01*
X002881Y003775D01*
X002574Y003775D01*
X002881Y004696D02*
X002881Y005309D01*
X003034Y005616D02*
X002881Y005770D01*
X002881Y006077D01*
X002727Y006230D01*
X002574Y006230D01*
X002420Y006077D01*
X002420Y005770D01*
X002574Y005616D01*
X003034Y005616D02*
X003187Y005616D01*
X003341Y005770D01*
X003341Y006077D01*
X003187Y006230D01*
X003034Y006537D02*
X002574Y006537D01*
X002420Y006691D01*
X002420Y007151D01*
X002267Y007151D02*
X002113Y006998D01*
X002113Y006844D01*
X002267Y007151D02*
X003034Y007151D01*
X002881Y007458D02*
X003034Y007611D01*
X003034Y008072D01*
X002727Y007918D02*
X002727Y007611D01*
X002881Y007458D01*
X002420Y007458D02*
X002420Y007918D01*
X002574Y008072D01*
X002727Y007918D01*
D14*
X010858Y006945D03*
D15*
X005885Y007339D03*
D16*
X012488Y007605D02*
X012488Y005045D01*
X014063Y005045D01*
X014063Y007605D01*
X012488Y007605D01*
X016229Y005695D02*
X016229Y001195D01*
X017229Y001195D01*
X017229Y001445D01*
X017228Y001445D02*
X017177Y001468D01*
X017128Y001495D01*
X017080Y001525D01*
X017035Y001558D01*
X016992Y001595D01*
X016952Y001634D01*
X016914Y001676D01*
X016880Y001721D01*
X016849Y001768D01*
X016821Y001816D01*
X016796Y001867D01*
X016775Y001919D01*
X016758Y001973D01*
X016744Y002027D01*
X016735Y002083D01*
X016729Y002139D01*
X016727Y002195D01*
X016729Y002251D01*
X016735Y002307D01*
X016744Y002363D01*
X016758Y002417D01*
X016775Y002471D01*
X016796Y002523D01*
X016821Y002574D01*
X016849Y002622D01*
X016880Y002669D01*
X016914Y002714D01*
X016952Y002756D01*
X016992Y002795D01*
X017035Y002832D01*
X017080Y002865D01*
X017128Y002895D01*
X017177Y002922D01*
X017228Y002945D01*
X017229Y002945D02*
X017229Y005695D01*
X016229Y005695D01*
X017729Y005459D02*
X018229Y004459D01*
X017479Y004959D02*
X017481Y005003D01*
X017487Y005047D01*
X017497Y005090D01*
X017510Y005132D01*
X017527Y005173D01*
X017548Y005212D01*
X017572Y005249D01*
X017599Y005284D01*
X017629Y005316D01*
X017662Y005346D01*
X017698Y005372D01*
X017735Y005396D01*
X017775Y005415D01*
X017816Y005432D01*
X017859Y005444D01*
X017902Y005453D01*
X017946Y005458D01*
X017990Y005459D01*
X018034Y005456D01*
X018078Y005449D01*
X018121Y005438D01*
X018163Y005424D01*
X018203Y005406D01*
X018242Y005384D01*
X018278Y005360D01*
X018312Y005332D01*
X018344Y005301D01*
X018373Y005267D01*
X018399Y005231D01*
X018421Y005193D01*
X018440Y005153D01*
X018455Y005111D01*
X018467Y005069D01*
X018475Y005025D01*
X018479Y004981D01*
X018479Y004937D01*
X018475Y004893D01*
X018467Y004849D01*
X018455Y004807D01*
X018440Y004765D01*
X018421Y004725D01*
X018399Y004687D01*
X018373Y004651D01*
X018344Y004617D01*
X018312Y004586D01*
X018278Y004558D01*
X018242Y004534D01*
X018203Y004512D01*
X018163Y004494D01*
X018121Y004480D01*
X018078Y004469D01*
X018034Y004462D01*
X017990Y004459D01*
X017946Y004460D01*
X017902Y004465D01*
X017859Y004474D01*
X017816Y004486D01*
X017775Y004503D01*
X017735Y004522D01*
X017698Y004546D01*
X017662Y004572D01*
X017629Y004602D01*
X017599Y004634D01*
X017572Y004669D01*
X017548Y004706D01*
X017527Y004745D01*
X017510Y004786D01*
X017497Y004828D01*
X017487Y004871D01*
X017481Y004915D01*
X017479Y004959D01*
X017479Y003695D02*
X017481Y003739D01*
X017487Y003783D01*
X017497Y003826D01*
X017510Y003868D01*
X017527Y003909D01*
X017548Y003948D01*
X017572Y003985D01*
X017599Y004020D01*
X017629Y004052D01*
X017662Y004082D01*
X017698Y004108D01*
X017735Y004132D01*
X017775Y004151D01*
X017816Y004168D01*
X017859Y004180D01*
X017902Y004189D01*
X017946Y004194D01*
X017990Y004195D01*
X018034Y004192D01*
X018078Y004185D01*
X018121Y004174D01*
X018163Y004160D01*
X018203Y004142D01*
X018242Y004120D01*
X018278Y004096D01*
X018312Y004068D01*
X018344Y004037D01*
X018373Y004003D01*
X018399Y003967D01*
X018421Y003929D01*
X018440Y003889D01*
X018455Y003847D01*
X018467Y003805D01*
X018475Y003761D01*
X018479Y003717D01*
X018479Y003673D01*
X018475Y003629D01*
X018467Y003585D01*
X018455Y003543D01*
X018440Y003501D01*
X018421Y003461D01*
X018399Y003423D01*
X018373Y003387D01*
X018344Y003353D01*
X018312Y003322D01*
X018278Y003294D01*
X018242Y003270D01*
X018203Y003248D01*
X018163Y003230D01*
X018121Y003216D01*
X018078Y003205D01*
X018034Y003198D01*
X017990Y003195D01*
X017946Y003196D01*
X017902Y003201D01*
X017859Y003210D01*
X017816Y003222D01*
X017775Y003239D01*
X017735Y003258D01*
X017698Y003282D01*
X017662Y003308D01*
X017629Y003338D01*
X017599Y003370D01*
X017572Y003405D01*
X017548Y003442D01*
X017527Y003481D01*
X017510Y003522D01*
X017497Y003564D01*
X017487Y003607D01*
X017481Y003651D01*
X017479Y003695D01*
X018193Y003695D02*
X018195Y003707D01*
X018201Y003717D01*
X018209Y003725D01*
X018220Y003730D01*
X018232Y003731D01*
X018243Y003728D01*
X018253Y003721D01*
X018261Y003712D01*
X018265Y003701D01*
X018265Y003689D01*
X018261Y003678D01*
X018253Y003669D01*
X018243Y003662D01*
X018232Y003659D01*
X018220Y003660D01*
X018209Y003665D01*
X018201Y003673D01*
X018195Y003683D01*
X018193Y003695D01*
X018171Y003695D02*
X018173Y003709D01*
X018178Y003723D01*
X018187Y003735D01*
X018198Y003744D01*
X018211Y003750D01*
X018225Y003753D01*
X018240Y003752D01*
X018254Y003747D01*
X018266Y003740D01*
X018276Y003729D01*
X018283Y003716D01*
X018287Y003702D01*
X018287Y003688D01*
X018283Y003674D01*
X018276Y003661D01*
X018266Y003650D01*
X018254Y003643D01*
X018240Y003638D01*
X018225Y003637D01*
X018211Y003640D01*
X018198Y003646D01*
X018187Y003655D01*
X018178Y003667D01*
X018173Y003681D01*
X018171Y003695D01*
X017022Y002195D02*
X017024Y002248D01*
X017030Y002300D01*
X017040Y002352D01*
X017053Y002403D01*
X017071Y002453D01*
X017092Y002502D01*
X017117Y002549D01*
X017145Y002593D01*
X017176Y002636D01*
X017211Y002676D01*
X017248Y002713D01*
X017288Y002748D01*
X017331Y002779D01*
X017376Y002807D01*
X017422Y002832D01*
X017471Y002853D01*
X017521Y002871D01*
X017572Y002884D01*
X017624Y002894D01*
X017676Y002900D01*
X017729Y002902D01*
X017782Y002900D01*
X017834Y002894D01*
X017886Y002884D01*
X017937Y002871D01*
X017987Y002853D01*
X018036Y002832D01*
X018083Y002807D01*
X018127Y002779D01*
X018170Y002748D01*
X018210Y002713D01*
X018247Y002676D01*
X018282Y002636D01*
X018313Y002593D01*
X018341Y002548D01*
X018366Y002502D01*
X018387Y002453D01*
X018405Y002403D01*
X018418Y002352D01*
X018428Y002300D01*
X018434Y002248D01*
X018436Y002195D01*
X018434Y002142D01*
X018428Y002090D01*
X018418Y002038D01*
X018405Y001987D01*
X018387Y001937D01*
X018366Y001888D01*
X018341Y001841D01*
X018313Y001797D01*
X018282Y001754D01*
X018247Y001714D01*
X018210Y001677D01*
X018170Y001642D01*
X018127Y001611D01*
X018082Y001583D01*
X018036Y001558D01*
X017987Y001537D01*
X017937Y001519D01*
X017886Y001506D01*
X017834Y001496D01*
X017782Y001490D01*
X017729Y001488D01*
X017676Y001490D01*
X017624Y001496D01*
X017572Y001506D01*
X017521Y001519D01*
X017471Y001537D01*
X017422Y001558D01*
X017375Y001583D01*
X017331Y001611D01*
X017288Y001642D01*
X017248Y001677D01*
X017211Y001714D01*
X017176Y001754D01*
X017145Y001797D01*
X017117Y001842D01*
X017092Y001888D01*
X017071Y001937D01*
X017053Y001987D01*
X017040Y002038D01*
X017030Y002090D01*
X017024Y002142D01*
X017022Y002195D01*
X014069Y001743D02*
X012494Y001743D01*
X012494Y004302D01*
X014069Y004302D01*
X014069Y001743D01*
D17*
X016858Y007183D02*
X016858Y007207D01*
X007850Y007433D02*
X007850Y007457D01*
D18*
X003930Y003232D02*
X003745Y003232D01*
X003745Y003047D01*
X003807Y002985D01*
X003869Y003047D01*
X003869Y003232D01*
X003930Y003232D02*
X003992Y003171D01*
X003992Y003047D01*
X003930Y002864D02*
X003745Y002864D01*
X003745Y002741D02*
X003930Y002741D01*
X003992Y002802D01*
X003930Y002864D01*
X003930Y002741D02*
X003992Y002679D01*
X003992Y002617D01*
X003745Y002617D01*
X003745Y002496D02*
X003745Y002311D01*
X003807Y002249D01*
X003869Y002311D01*
X003869Y002496D01*
X003930Y002496D02*
X003745Y002496D01*
X003930Y002496D02*
X003992Y002434D01*
X003992Y002311D01*
X003930Y002127D02*
X003745Y002127D01*
X003930Y002127D02*
X003992Y002066D01*
X003992Y001880D01*
X003745Y001880D01*
X003745Y001759D02*
X003745Y001574D01*
X003807Y001512D01*
X003869Y001574D01*
X003869Y001759D01*
X003930Y001759D02*
X003745Y001759D01*
X003930Y001759D02*
X003992Y001697D01*
X003992Y001574D01*
X003930Y001391D02*
X003869Y001329D01*
X003869Y001144D01*
X003745Y001144D02*
X004115Y001144D01*
X004115Y001329D01*
X004054Y001391D01*
X003930Y001391D01*
D19*
X002693Y001151D03*
X002880Y001651D03*
X003068Y001651D03*
X003255Y001651D03*
X003443Y001651D03*
X003630Y001651D03*
X003630Y001839D03*
X003630Y002026D03*
X003443Y002026D03*
X003255Y002026D03*
X003255Y001839D03*
X003068Y001839D03*
X003068Y002026D03*
X002880Y002026D03*
X002880Y001839D03*
X002693Y001839D03*
X002693Y002026D03*
X002505Y002026D03*
X002505Y001839D03*
X002505Y001651D03*
X002693Y002214D03*
X002880Y002214D03*
X002880Y002401D03*
X002693Y002401D03*
X002505Y002401D03*
X002255Y002214D03*
X002505Y002589D03*
X002880Y002589D03*
X003068Y002589D03*
X003255Y002589D03*
X003443Y002589D03*
X003443Y002401D03*
X003630Y002401D03*
X003630Y002214D03*
X003443Y002214D03*
X003255Y002401D03*
X003068Y002401D03*
X003068Y002214D03*
X003505Y003026D03*
X002380Y006964D03*
D20*
X016501Y005284D02*
X016501Y005130D01*
X016577Y005053D01*
X016884Y005053D01*
X016961Y005130D01*
X016961Y005284D01*
X016884Y005360D01*
X016577Y005360D02*
X016501Y005284D01*
X016501Y004900D02*
X016961Y004900D01*
X016961Y004593D02*
X016501Y004593D01*
X016501Y004900D02*
X016961Y004593D01*
X017672Y004961D02*
X018286Y004961D01*
X018209Y004884D02*
X018209Y005038D01*
X018132Y005115D01*
X017979Y005038D02*
X017979Y004884D01*
X018055Y004808D01*
X018132Y004808D01*
X018209Y004884D01*
X017979Y005038D02*
X017902Y005115D01*
X017825Y005115D01*
X017749Y005038D01*
X017749Y004884D01*
X017825Y004808D01*
X016961Y003982D02*
X016884Y003982D01*
X016731Y003829D01*
X016501Y003829D01*
X016731Y003829D01*
X016884Y003675D01*
X016961Y003675D01*
X016884Y003675D01*
X016731Y003829D01*
X016884Y003982D01*
X016961Y003982D01*
X016884Y003522D02*
X016807Y003522D01*
X016731Y003445D01*
X016731Y003215D01*
X016731Y003445D01*
X016654Y003522D01*
X016577Y003522D01*
X016501Y003445D01*
X016501Y003215D01*
X016961Y003215D01*
X016961Y003445D01*
X016884Y003522D01*
X016807Y003522D01*
X016731Y003445D01*
X016654Y003522D01*
X016577Y003522D01*
X016501Y003445D01*
X016501Y003215D01*
X016961Y003215D01*
X016961Y003445D01*
X016884Y003522D01*
X018193Y003609D02*
X018193Y003685D01*
X018270Y003685D01*
X018270Y003609D01*
X018193Y003609D01*
X017882Y002482D02*
X017959Y002406D01*
X017959Y002252D01*
X017882Y002175D01*
X017575Y002175D01*
X017499Y002252D01*
X017499Y002406D01*
X017575Y002482D01*
X017575Y002022D02*
X017499Y001945D01*
X017499Y001792D01*
X017575Y001715D01*
X017882Y001715D01*
X017959Y001792D01*
X017959Y001945D01*
X017882Y002022D01*
D21*
X017839Y003707D03*
D22*
X017957Y003707D03*
M02*
