%
M48
M72
T01C0.0236
T02C0.0400
T03C0.0472
%
T01
X4358Y2195
X5108Y2945
X5733Y3070
X6108Y3445
X6670Y3070
X6108Y3945
X5608Y3945
X5108Y3945
X3858Y3945
X3045Y3539
X2701Y3289
X2237Y3113
X3788Y4905
X3423Y5145
X3483Y6070
X2431Y6441
X2420Y7101
X1420Y7101
X3483Y7420
X4858Y6945
X5108Y6445
X6108Y5445
X5608Y4945
X6108Y4695
X5045Y5320
X7108Y6945
X6983Y7633
X6233Y7820
X8858Y7758
X9576Y7289
X8858Y6945
X11858Y7195
X12358Y7820
X12201Y5695
X12389Y5008
X12108Y4039
X10858Y2570
X9858Y2570
X8358Y2445
X12206Y1861
X17858Y7195
X18170Y7695
T02
X10324Y1766
X9324Y1766
T03
X15358Y2695
X15358Y3695
X15358Y4695
X15358Y5695
X15358Y6695
M30
