G75*
G70*
%OFA0B0*%
%FSLAX24Y24*%
%IPPOS*%
%LPD*%
%AMOC8*
5,1,8,0,0,1.08239X$1,22.5*
%
%ADD10R,0.0433X0.0394*%
%ADD11R,0.0276X0.0354*%
%ADD12R,0.0315X0.0315*%
%ADD13R,0.0827X0.0394*%
%ADD14R,0.0472X0.0551*%
%ADD15R,0.0354X0.0276*%
%ADD16R,0.0394X0.0433*%
%ADD17R,0.2756X0.0787*%
%ADD18R,0.2756X0.0984*%
%ADD19R,0.0551X0.0138*%
%ADD20R,0.0748X0.0709*%
%ADD21R,0.0748X0.0748*%
D10*
X007747Y001759D03*
X008417Y001759D03*
X002130Y007601D03*
X001460Y007601D03*
X001460Y008070D03*
X002130Y008070D03*
D11*
X009602Y007824D03*
X010113Y007824D03*
X007008Y002066D03*
X006496Y002066D03*
X006496Y001566D03*
X007008Y001566D03*
X004250Y001437D03*
X003738Y001437D03*
D12*
X005207Y001566D03*
X005797Y001566D03*
X005797Y002066D03*
X005207Y002066D03*
X005190Y007807D03*
X005781Y007807D03*
D13*
X004119Y006461D03*
X004119Y005461D03*
X004119Y004461D03*
X004119Y003461D03*
X008096Y003461D03*
X008096Y004461D03*
X008096Y005461D03*
X008096Y006461D03*
D14*
X001693Y001555D03*
X002874Y001555D03*
X002874Y002476D03*
X001693Y002476D03*
D15*
X003442Y003903D03*
X003442Y004415D03*
D16*
X003031Y005840D03*
X003031Y006510D03*
X003051Y007071D03*
X003954Y007071D03*
X003954Y007740D03*
X003051Y007740D03*
X008080Y007998D03*
X008080Y007329D03*
X011108Y007239D03*
X011108Y007909D03*
X011432Y002454D03*
X011432Y001785D03*
D17*
X010151Y003410D03*
X010151Y006244D03*
D18*
X010151Y004827D03*
D19*
X002593Y004894D03*
X002593Y005150D03*
X002593Y005406D03*
X002593Y004638D03*
X002593Y004382D03*
D20*
X001550Y003319D03*
X001550Y006469D03*
D21*
X001550Y005394D03*
X001550Y004394D03*
M02*
