G75*
G70*
%OFA0B0*%
%FSLAX24Y24*%
%IPPOS*%
%LPD*%
%AMOC8*
5,1,8,0,0,1.08239X$1,22.5*
%
%ADD10C,0.0010*%
%ADD11R,0.0160X0.0280*%
%ADD12C,0.0080*%
%ADD13C,0.0050*%
%ADD14C,0.0020*%
%ADD15R,0.0280X0.0160*%
%ADD16C,0.0100*%
%ADD17C,0.0060*%
%ADD18C,0.0040*%
%ADD19C,0.0220*%
%ADD20C,0.0120*%
D10*
X003273Y001351D02*
X003273Y001501D01*
X003348Y001501D01*
X003373Y001476D01*
X003373Y001426D01*
X003348Y001401D01*
X003273Y001401D01*
X003323Y001401D02*
X003373Y001351D01*
X003421Y001376D02*
X003446Y001351D01*
X003496Y001351D01*
X003521Y001376D01*
X003521Y001401D01*
X003496Y001426D01*
X003421Y001426D01*
X003421Y001376D01*
X003421Y001426D02*
X003471Y001476D01*
X003521Y001501D01*
X003525Y001788D02*
X003425Y001788D01*
X003425Y001938D01*
X003525Y001938D01*
X003572Y001938D02*
X003647Y001938D01*
X003672Y001913D01*
X003672Y001813D01*
X003647Y001788D01*
X003572Y001788D01*
X003572Y001938D01*
X003475Y001863D02*
X003425Y001863D01*
X003377Y001863D02*
X003352Y001838D01*
X003277Y001838D01*
X003327Y001838D02*
X003377Y001788D01*
X003377Y001863D02*
X003377Y001913D01*
X003352Y001938D01*
X003277Y001938D01*
X003277Y001788D01*
X003719Y001863D02*
X003819Y001863D01*
X003866Y001913D02*
X003866Y001813D01*
X003892Y001788D01*
X003942Y001788D01*
X003967Y001813D01*
X003967Y001913D01*
X003942Y001938D01*
X003892Y001938D01*
X003866Y001913D01*
X004688Y002130D02*
X004788Y002130D01*
X004835Y002130D02*
X004935Y001980D01*
X004835Y001980D02*
X004935Y002130D01*
X004738Y002130D02*
X004738Y001980D01*
X004719Y001630D02*
X004794Y001630D01*
X004819Y001605D01*
X004819Y001555D01*
X004794Y001530D01*
X004719Y001530D01*
X004769Y001530D02*
X004819Y001480D01*
X004866Y001480D02*
X004966Y001630D01*
X004866Y001630D02*
X004966Y001480D01*
X004719Y001480D02*
X004719Y001630D01*
X006032Y002002D02*
X006032Y002152D01*
X006107Y002152D01*
X006132Y002127D01*
X006132Y002077D01*
X006107Y002052D01*
X006032Y002052D01*
X006082Y002052D02*
X006132Y002002D01*
X006180Y002002D02*
X006280Y002102D01*
X006280Y002127D01*
X006255Y002152D01*
X006205Y002152D01*
X006180Y002127D01*
X006180Y002002D02*
X006280Y002002D01*
X006261Y001684D02*
X006261Y001534D01*
X006211Y001534D02*
X006311Y001534D01*
X006211Y001634D02*
X006261Y001684D01*
X006164Y001659D02*
X006138Y001684D01*
X006063Y001684D01*
X006063Y001534D01*
X006063Y001584D02*
X006138Y001584D01*
X006164Y001609D01*
X006164Y001659D01*
X006113Y001584D02*
X006164Y001534D01*
X007987Y001439D02*
X007987Y001339D01*
X008012Y001314D01*
X008062Y001314D01*
X008087Y001339D01*
X008134Y001389D02*
X008234Y001389D01*
X008209Y001314D02*
X008209Y001464D01*
X008134Y001389D01*
X008087Y001439D02*
X008062Y001464D01*
X008012Y001464D01*
X007987Y001439D01*
X010900Y002034D02*
X010975Y002034D01*
X011000Y002059D01*
X011000Y002159D01*
X010975Y002184D01*
X010900Y002184D01*
X010900Y002034D01*
X011047Y002034D02*
X011147Y002134D01*
X011147Y002159D01*
X011122Y002184D01*
X011072Y002184D01*
X011047Y002159D01*
X011047Y002034D02*
X011147Y002034D01*
X003841Y002708D02*
X003791Y002708D01*
X003816Y002708D02*
X003816Y002859D01*
X003791Y002859D02*
X003841Y002859D01*
X003743Y002783D02*
X003643Y002783D01*
X003596Y002733D02*
X003596Y002833D01*
X003571Y002859D01*
X003496Y002859D01*
X003496Y002708D01*
X003571Y002708D01*
X003596Y002733D01*
X003449Y002708D02*
X003349Y002708D01*
X003349Y002859D01*
X003449Y002859D01*
X003399Y002783D02*
X003349Y002783D01*
X003301Y002783D02*
X003276Y002758D01*
X003201Y002758D01*
X003201Y002708D02*
X003201Y002859D01*
X003276Y002859D01*
X003301Y002833D01*
X003301Y002783D01*
X003251Y002758D02*
X003301Y002708D01*
X003319Y004634D02*
X003319Y004784D01*
X003394Y004784D01*
X003419Y004759D01*
X003419Y004709D01*
X003394Y004684D01*
X003319Y004684D01*
X003369Y004684D02*
X003419Y004634D01*
X003466Y004709D02*
X003566Y004709D01*
X003541Y004784D02*
X003466Y004709D01*
X003541Y004634D02*
X003541Y004784D01*
X003490Y006610D02*
X003440Y006610D01*
X003414Y006635D01*
X003367Y006635D02*
X003342Y006610D01*
X003292Y006610D01*
X003267Y006635D01*
X003267Y006735D01*
X003292Y006760D01*
X003342Y006760D01*
X003367Y006735D01*
X003414Y006735D02*
X003440Y006760D01*
X003490Y006760D01*
X003515Y006735D01*
X003515Y006710D01*
X003490Y006685D01*
X003515Y006660D01*
X003515Y006635D01*
X003490Y006610D01*
X003490Y006685D02*
X003465Y006685D01*
X002643Y007501D02*
X002543Y007501D01*
X002593Y007501D02*
X002593Y007651D01*
X002543Y007601D01*
X002495Y007651D02*
X002395Y007651D01*
X002395Y007501D01*
X002395Y007576D02*
X002445Y007576D01*
X002438Y007978D02*
X002488Y007978D01*
X002513Y008003D01*
X002513Y008128D01*
X002560Y008078D02*
X002610Y008128D01*
X002610Y007978D01*
X002560Y007978D02*
X002660Y007978D01*
X002438Y007978D02*
X002413Y008003D01*
X002413Y008128D01*
X002896Y008163D02*
X002896Y008063D01*
X002921Y008038D01*
X002971Y008038D01*
X002996Y008063D01*
X003043Y008038D02*
X003143Y008138D01*
X003143Y008163D01*
X003118Y008188D01*
X003068Y008188D01*
X003043Y008163D01*
X002996Y008163D02*
X002971Y008188D01*
X002921Y008188D01*
X002896Y008163D01*
X003043Y008038D02*
X003143Y008038D01*
X003864Y008059D02*
X003889Y008034D01*
X003939Y008034D01*
X003964Y008059D01*
X004012Y008034D02*
X004112Y008034D01*
X004062Y008034D02*
X004062Y008184D01*
X004012Y008134D01*
X003964Y008159D02*
X003939Y008184D01*
X003889Y008184D01*
X003864Y008159D01*
X003864Y008059D01*
X004523Y007871D02*
X004523Y007721D01*
X004523Y007771D02*
X004599Y007771D01*
X004624Y007796D01*
X004624Y007846D01*
X004599Y007871D01*
X004523Y007871D01*
X004574Y007771D02*
X004624Y007721D01*
X004721Y007721D02*
X004721Y007871D01*
X004671Y007871D02*
X004771Y007871D01*
X004818Y007846D02*
X004818Y007821D01*
X004843Y007796D01*
X004893Y007796D01*
X004918Y007771D01*
X004918Y007746D01*
X004893Y007721D01*
X004843Y007721D01*
X004818Y007746D01*
X004818Y007846D02*
X004843Y007871D01*
X004893Y007871D01*
X004918Y007846D01*
X008385Y007871D02*
X008460Y007871D01*
X008435Y007921D01*
X008435Y007946D01*
X008460Y007971D01*
X008510Y007971D01*
X008535Y007946D01*
X008535Y007896D01*
X008510Y007871D01*
X008510Y007824D02*
X008535Y007799D01*
X008535Y007749D01*
X008510Y007724D01*
X008410Y007724D01*
X008385Y007749D01*
X008385Y007799D01*
X008410Y007824D01*
X008385Y007871D02*
X008385Y007971D01*
X009137Y007888D02*
X009137Y007738D01*
X009137Y007788D02*
X009212Y007788D01*
X009237Y007813D01*
X009237Y007863D01*
X009212Y007888D01*
X009137Y007888D01*
X009187Y007788D02*
X009237Y007738D01*
X009284Y007763D02*
X009309Y007738D01*
X009359Y007738D01*
X009384Y007763D01*
X009384Y007813D01*
X009359Y007838D01*
X009334Y007838D01*
X009284Y007813D01*
X009284Y007888D01*
X009384Y007888D01*
X010634Y007713D02*
X010634Y007563D01*
X010709Y007563D01*
X010734Y007588D01*
X010734Y007688D01*
X010709Y007713D01*
X010634Y007713D01*
X010781Y007663D02*
X010831Y007713D01*
X010831Y007563D01*
X010781Y007563D02*
X010881Y007563D01*
D11*
X009858Y007824D03*
X006752Y002066D03*
X006752Y001566D03*
X003994Y001437D03*
D12*
X003229Y001161D02*
X003229Y001949D01*
X002678Y001949D01*
X002678Y002082D02*
X003229Y002082D01*
X003229Y002870D01*
X002678Y002870D01*
X002402Y002712D02*
X002166Y002476D01*
X002402Y002240D01*
X002402Y002712D01*
X002166Y002751D02*
X002166Y002476D01*
X002166Y002200D01*
X001890Y002082D02*
X001339Y002082D01*
X001339Y002870D01*
X001890Y002870D01*
X002042Y003555D02*
X002672Y003555D01*
X002672Y004028D01*
X002121Y004028D01*
X002121Y005760D01*
X002672Y005760D01*
X002672Y006232D01*
X002042Y006232D01*
X000979Y006232D02*
X000979Y003555D01*
X001339Y001949D02*
X001890Y001949D01*
X002166Y001831D02*
X002166Y001555D01*
X002402Y001791D01*
X002402Y001319D01*
X002166Y001555D01*
X002166Y001280D01*
X001890Y001161D02*
X001339Y001161D01*
X001339Y001949D01*
X002678Y001161D02*
X003229Y001161D01*
X005435Y001385D02*
X005435Y001566D01*
X005557Y001658D01*
X005435Y001747D02*
X005435Y001566D01*
X005441Y001556D02*
X005557Y001480D01*
X005435Y001885D02*
X005435Y002066D01*
X005557Y002158D01*
X005435Y002247D02*
X005435Y002066D01*
X005441Y002056D02*
X005557Y001980D01*
X008824Y002016D02*
X008824Y001516D01*
X009074Y001266D01*
X009574Y001266D01*
X009824Y001516D01*
X010074Y001266D01*
X010574Y001266D01*
X010824Y001516D01*
X010824Y002016D01*
X010574Y002266D01*
X010074Y002266D01*
X009824Y002016D01*
X009574Y002266D01*
X009074Y002266D01*
X008824Y002016D01*
X005419Y007626D02*
X005419Y007807D01*
X005541Y007899D01*
X005419Y007988D02*
X005419Y007807D01*
X005425Y007797D02*
X005541Y007721D01*
D13*
X004608Y007461D02*
X007608Y007461D01*
X007608Y002461D01*
X004608Y002461D01*
X004608Y007461D01*
X004858Y006961D02*
X004860Y006992D01*
X004866Y007023D01*
X004876Y007053D01*
X004889Y007081D01*
X004906Y007108D01*
X004926Y007132D01*
X004949Y007154D01*
X004974Y007172D01*
X005002Y007187D01*
X005031Y007199D01*
X005061Y007207D01*
X005092Y007211D01*
X005124Y007211D01*
X005155Y007207D01*
X005185Y007199D01*
X005214Y007187D01*
X005242Y007172D01*
X005267Y007154D01*
X005290Y007132D01*
X005310Y007108D01*
X005327Y007081D01*
X005340Y007053D01*
X005350Y007023D01*
X005356Y006992D01*
X005358Y006961D01*
X005356Y006930D01*
X005350Y006899D01*
X005340Y006869D01*
X005327Y006841D01*
X005310Y006814D01*
X005290Y006790D01*
X005267Y006768D01*
X005242Y006750D01*
X005214Y006735D01*
X005185Y006723D01*
X005155Y006715D01*
X005124Y006711D01*
X005092Y006711D01*
X005061Y006715D01*
X005031Y006723D01*
X005002Y006735D01*
X004974Y006750D01*
X004949Y006768D01*
X004926Y006790D01*
X004906Y006814D01*
X004889Y006841D01*
X004876Y006869D01*
X004866Y006899D01*
X004860Y006930D01*
X004858Y006961D01*
X008651Y006827D02*
X008651Y002827D01*
X011651Y002827D01*
X011651Y006827D01*
X008651Y006827D01*
D14*
X009961Y006939D02*
X009997Y006902D01*
X010071Y006902D01*
X010108Y006939D01*
X010108Y007012D01*
X010034Y007012D01*
X009961Y007085D02*
X009961Y006939D01*
X009961Y007085D02*
X009997Y007122D01*
X010071Y007122D01*
X010108Y007085D01*
X010182Y007122D02*
X010329Y007122D01*
X010255Y007122D02*
X010255Y006902D01*
X007673Y007706D02*
X007526Y007706D01*
X007636Y007816D01*
X007636Y007596D01*
X007452Y007633D02*
X007452Y007816D01*
X007305Y007816D02*
X007305Y007633D01*
X007342Y007596D01*
X007415Y007596D01*
X007452Y007633D01*
X002222Y006951D02*
X002222Y006811D01*
X001942Y006811D01*
X001942Y006951D01*
X001988Y006998D01*
X002035Y006998D01*
X002082Y006951D01*
X002082Y006811D01*
X002128Y006722D02*
X002175Y006722D01*
X002222Y006675D01*
X002222Y006581D01*
X002175Y006535D01*
X002175Y006445D02*
X001942Y006445D01*
X001988Y006535D02*
X001942Y006581D01*
X001942Y006675D01*
X001988Y006722D01*
X002082Y006675D02*
X002128Y006722D01*
X002082Y006675D02*
X002082Y006581D01*
X002035Y006535D01*
X001988Y006535D01*
X002175Y006445D02*
X002222Y006399D01*
X002222Y006305D01*
X002175Y006259D01*
X001942Y006259D01*
X002082Y006951D02*
X002128Y006998D01*
X002175Y006998D01*
X002222Y006951D01*
X008837Y002599D02*
X008910Y002599D01*
X008874Y002599D02*
X008874Y002415D01*
X008837Y002378D01*
X008800Y002378D01*
X008764Y002415D01*
X008985Y002378D02*
X008985Y002599D01*
X009095Y002599D01*
X009131Y002562D01*
X009131Y002489D01*
X009095Y002452D01*
X008985Y002452D01*
X009206Y002525D02*
X009279Y002599D01*
X009279Y002378D01*
X009206Y002378D02*
X009352Y002378D01*
D15*
X003442Y004159D03*
D16*
X014787Y002144D02*
X015928Y002144D01*
X015928Y007246D01*
X014787Y007246D01*
X014787Y002144D01*
D17*
X015791Y002187D02*
X015791Y007203D01*
D18*
X016077Y007162D02*
X016538Y007162D01*
X016077Y006855D01*
X016538Y006855D01*
X016461Y006701D02*
X016154Y006701D01*
X016077Y006624D01*
X016077Y006471D01*
X016154Y006394D01*
X016461Y006394D01*
X016538Y006471D01*
X016538Y006624D01*
X016461Y006701D01*
X016461Y006241D02*
X016538Y006164D01*
X016538Y006011D01*
X016461Y005934D01*
X016154Y005934D01*
X016077Y006011D01*
X016077Y006164D01*
X016154Y006241D01*
D19*
X008092Y007664D02*
X008068Y007664D01*
X003966Y007406D02*
X003942Y007406D01*
X003063Y007406D02*
X003039Y007406D01*
X003043Y006175D02*
X003019Y006175D01*
X008082Y001771D02*
X008082Y001747D01*
D20*
X000998Y000955D02*
X000998Y008435D01*
X018718Y008435D01*
X018718Y000955D01*
X000998Y000955D01*
M02*
