G75*
G70*
%OFA0B0*%
%FSLAX24Y24*%
%IPPOS*%
%LPD*%
%AMOC8*
5,1,8,0,0,1.08239X$1,22.5*
%
%ADD10R,0.0473X0.0434*%
%ADD11R,0.0316X0.0394*%
%ADD12R,0.0355X0.0355*%
%ADD13R,0.0867X0.0434*%
%ADD14R,0.0512X0.0591*%
%ADD15R,0.0394X0.0316*%
%ADD16R,0.0434X0.0473*%
%ADD17C,0.0780*%
%ADD18R,0.2796X0.0827*%
%ADD19R,0.2796X0.1024*%
%ADD20C,0.0749*%
%ADD21R,0.0591X0.0178*%
%ADD22R,0.0788X0.0749*%
%ADD23R,0.0788X0.0788*%
D10*
X007747Y001759D03*
X008417Y001759D03*
X002130Y007601D03*
X001460Y007601D03*
X001460Y008070D03*
X002130Y008070D03*
D11*
X009602Y007824D03*
X010113Y007824D03*
X007008Y002066D03*
X006496Y002066D03*
X006496Y001566D03*
X007008Y001566D03*
X004250Y001437D03*
X003738Y001437D03*
D12*
X005207Y001566D03*
X005797Y001566D03*
X005797Y002066D03*
X005207Y002066D03*
X005190Y007807D03*
X005781Y007807D03*
D13*
X004119Y006461D03*
X004119Y005461D03*
X004119Y004461D03*
X004119Y003461D03*
X008096Y003461D03*
X008096Y004461D03*
X008096Y005461D03*
X008096Y006461D03*
D14*
X001693Y001555D03*
X002874Y001555D03*
X002874Y002476D03*
X001693Y002476D03*
D15*
X003442Y003903D03*
X003442Y004415D03*
D16*
X003031Y005840D03*
X003031Y006510D03*
X003051Y007071D03*
X003954Y007071D03*
X003954Y007740D03*
X003051Y007740D03*
X008080Y007998D03*
X008080Y007329D03*
X011108Y007239D03*
X011108Y007909D03*
X011432Y002454D03*
X011432Y001785D03*
D17*
X010324Y001766D03*
X009324Y001766D03*
D18*
X010151Y003410D03*
X010151Y006244D03*
D19*
X010151Y004827D03*
D20*
X015003Y004695D02*
X015712Y004695D01*
X015712Y005695D02*
X015003Y005695D01*
X015003Y006695D02*
X015712Y006695D01*
X015712Y003695D02*
X015003Y003695D01*
X015003Y002695D02*
X015712Y002695D01*
D21*
X002593Y004382D03*
X002593Y004638D03*
X002593Y004894D03*
X002593Y005150D03*
X002593Y005406D03*
D22*
X001550Y006469D03*
X001550Y003319D03*
D23*
X001550Y004394D03*
X001550Y005394D03*
M02*
