G75*
G70*
%OFA0B0*%
%FSLAX24Y24*%
%IPPOS*%
%LPD*%
%AMOC8*
5,1,8,0,0,1.08239X$1,22.5*
%
%ADD10R,0.0590X0.0177*%
%ADD11R,0.0512X0.0276*%
%ADD12R,0.0316X0.0394*%
%ADD13R,0.0473X0.0434*%
%ADD14R,0.1379X0.0768*%
%ADD15R,0.1379X0.0355*%
%ADD16C,0.0780*%
%ADD17C,0.0749*%
%ADD18R,0.0670X0.0749*%
D10*
X004418Y003282D03*
X004418Y003538D03*
X004418Y003793D03*
X004418Y004049D03*
X004418Y004305D03*
X004418Y004561D03*
X004418Y004817D03*
X004418Y005073D03*
X004418Y005329D03*
X004418Y005585D03*
X004418Y005841D03*
X004418Y006097D03*
X004418Y006353D03*
X004418Y006608D03*
X007297Y006608D03*
X007297Y006353D03*
X007297Y006097D03*
X007297Y005841D03*
X007297Y005585D03*
X007297Y005329D03*
X007297Y005073D03*
X007297Y004817D03*
X007297Y004561D03*
X007297Y004305D03*
X007297Y004049D03*
X007297Y003793D03*
X007297Y003538D03*
X007297Y003282D03*
D11*
X008108Y003195D03*
X008108Y003695D03*
X008108Y004195D03*
X008108Y004695D03*
X008108Y005195D03*
X008108Y005695D03*
X008108Y006195D03*
X008108Y006695D03*
X011608Y006695D03*
X011608Y006195D03*
X011608Y005695D03*
X011608Y005195D03*
X011608Y004695D03*
X011608Y004195D03*
X011608Y003695D03*
X011608Y003195D03*
D12*
X006141Y007339D03*
X005629Y007339D03*
D13*
X007515Y007445D03*
X008184Y007445D03*
X014966Y007535D03*
X015635Y007535D03*
X016523Y007195D03*
X017192Y007195D03*
X015733Y001604D03*
X015063Y001604D03*
D14*
X013282Y002235D03*
X013282Y003810D03*
X013276Y005538D03*
X013276Y007112D03*
D15*
X013276Y006325D03*
X013282Y003023D03*
D16*
X010324Y001766D03*
X009324Y001766D03*
D17*
X015003Y002695D02*
X015712Y002695D01*
X015712Y003695D02*
X015003Y003695D01*
X015003Y004695D02*
X015712Y004695D01*
X015712Y005695D02*
X015003Y005695D01*
X015003Y006695D02*
X015712Y006695D01*
D18*
X016806Y006195D03*
X017909Y006195D03*
M02*
